<?xml version="1.0" encoding="UTF-8"?>
<!-- Created with Inkscape (http://www.inkscape.org/) -->
<svg width="48" height="48" version="1.1" viewBox="0 0 12.7 12.7" xml:space="preserve" xmlns="http://www.w3.org/2000/svg"><defs><clipPath id="clipPath656"><path d="m-432 67.319c-1.7362 0.13967-3.5015 0.24602-4.3977 0.17868-1.8107-4.1115 1.5205-8.9533 4.4498-8.8464 6.2022 0.22624 4.3278 8.329-0.0521 8.6678z" fill="#0273aa" style="paint-order:normal"/></clipPath><clipPath id="clipPath953"><circle transform="scale(-1,1)" cx="420.85" cy="71.167" r="57.454" fill="#0273aa" style="paint-order:normal"/></clipPath></defs><g transform="matrix(1.1789 0 0 1.1789 563.88 -16.167)" stroke-width=".5"><g transform="matrix(.09375 0 0 .09375 -433.47 12.427)" clip-path="url(#clipPath953)" stroke-width="5.3333"><circle transform="scale(-1,1)" cx="420.85" cy="71.167" r="57.454" fill="#0073aa" style="paint-order:normal"/><g clip-path="none" stroke-width="5.3333"><g><path d="m-394.37 131.48c5.1212-4.3438 11.677-7.3865 14.742-13.661 7.5125-10.787 9.9369-23.023 7.0857-35.021-3.5931-12.873-10.702-24.576-20.054-34.075-6.4997-8.653-17.65-20.956-5.008-28.104-6.3069-4.0562-18.756-4.6381-25.704-1.7492-15.259 5.9602-26.033 19.153-31.666 33.953-3.2501 8.5387-0.75393 16.124-1.7692 25.047-0.35669 4.1453 17.319 8.9847 17.653 13.108 13.497 14.623 15.846 37.512 36.898 39.291 2.6075 0.40399 5.215 0.80799 7.8224 1.212z" fill="#e6e6e6" style="paint-order:normal"/><path d="m-404.67 53.966c-15.126-12.03-8.8751-28.361 7.0678-33.35-6.3069-4.0562-18.756-4.6381-25.704-1.7492-15.259 5.9602-26.033 19.153-31.666 33.953-3.2501 8.5387-0.75393 16.124-1.7692 25.047-0.35669 4.1453 17.319 8.9847 17.653 13.108 26.571-16.774 21.844-0.32536 34.418-37.009z" fill="#fff" style="paint-order:normal"/><path d="m-457.73 69.432c3.3896-13.265 8.1733-20.647 18.283-28.817 2.5432-3.7572 5.8926-9.3379 8.3122-10.306 2.7432 1.2373 3.7089 3.928 5.2721 6.367l6.1249-1.2273c1.6358-5.2601 3.1224-8.4471 7.6201-10.655 6.2714 4.1055 10.787 9.4419 8.7393 18.139 13.099 13.465 16.444 20.397 24.604 39.659 0.49305 9.3474-0.27747 21.544-1.4697 29.794 0 0-1.6926 6.2585-2.4773 5.7245-0.7847-0.53409-4.7644-5.1872-4.7644-5.1872l-14.107-45.691-26.405-16.864s-13.847 5.578-14.887 5.947c-1.0404 0.36899-13.533 18.76-13.533 18.76z" fill="#0073aa" style="paint-order:normal"/></g><path d="m-384.88 121.38c3.7549-12.905 3.7989-25.679 3.4611-38.415-3.687-9.0158-6.9066-16.257-11.008-22.767-33.449 11.591-41.51 10.307-48.192 20.239-0.97945 7.9334-6.1352 12.229-0.80529 12.979-3.9399 6.7158-7.9554 17.147-7.099 28.871 4.5246 2.4308 9.6256 4.7608 14.501 6.3812 4.0208 1.0367 8.176 1.3787 12.378 1.3661 3.8389 0.3095 7.6795 0.82426 11.51 0.15208 4.5523-0.17052 8.8584-1.8 13.221-2.9485 2.983-1.3674 4.0107-1.5656 6.9937-2.933z" fill="#fff" style="paint-order:normal"/><path transform="translate(-1.6925e-5)" d="m-396.08 90.674c-0.0102-2.1865-0.31014-3.6579 0.73553-8.4529-0.56307-1.5663-1.3733-3.1167-4.3773-4.1292l-27.886-5.7565-13.816 21.085c-0.37346 0.63218-1.5594 2.7366-2.3232 4.4956l7.3321 2.0072 3.0495 16.393c-1.0166 5.7906-1.7108 11.201 1.8533 14.826l35.362 2.992c-0.42715-3.2082-4.1289-11.83-2.5204-19.803z" fill="#e6e6e6" style="paint-order:normal"/><g stroke-width="5.3333"><path d="m-389.18 65.821c-4.2947-8.0897-9.2658-14.815-16.997-21.788 2.5384-7.6013-0.90679-11.837-5.9594-15.959-3.9682 2.7635-4.3554 5.2639-5.5142 9.5336l-10.078 1.8757c-0.60659-1.4657-1.6963-5.4739-3.5871-5.9476-2.6941 2.293-3.6262 7.2873-9.063 11.064-10.718 8.9574-16.276 23.967-17.447 36.4-0.60434 3.5937 1.2838 5.0836 2.1745 7.0849 4.0042 4.3445 8.8732 4.7712 14.227 5.329 12.387 1.2907 47.914-12.996 52.245-27.592z" fill="#fff" style="paint-order:normal"/><g><path d="m-432 67.319c-1.7362 0.13967-3.5015 0.24603-4.3977 0.17868-1.8107-4.1115 1.5205-8.9533 4.4498-8.8464 6.2022 0.22623 4.3278 8.329-0.0521 8.6678z" fill="#0273aa" style="paint-order:normal"/><circle transform="translate(-1.6925e-5)" cx="-435.37" cy="65.692" r="2.1498" clip-path="url(#clipPath656)" fill="#fff" style="paint-order:normal"/><path transform="translate(-1.6925e-5)" d="m-412.33 46.837c3.3887-4.7907 4.2784-5.6777 3.5344-11.123-1.2874-2.5251-3.5594-0.0091-3.5778 0.37371-0.0793 0.26886 0.62604 5.6925 0.0434 10.749z" fill="#0273aa" style="paint-order:normal"/><path transform="translate(-1.6925e-5)" d="m-439.13 43.584c3.7231-1.6144 7.3675-3.4834 11.415-4.0484l-1.3608-3.6173c-0.80217-1.3896-1.7545-2.4909-2.2769-2.3667-0.0768 0.01826-0.1989 0.05969-1.0353 1.1458-1.0872 1.4118-2.1946 3.5716-3.5216 5.3976-1.4689 2.0211-2.9856 3.5021-3.2202 3.489z" fill="#e6e6e6" style="paint-order:normal"/><path d="m-406.09 44.109-3.3812 5.2637 6.1158-2.6794z" fill="#e6e6e6" style="paint-order:normal"/></g><g transform="translate(-1.6925e-5)" fill="#0073aa" stroke-width="5.3333"><path d="m-457.88 83.18s-1.1762 2.935 1.4637 5.0585c4.1061-3.3755 4.3408-6.0791 3.9998-6.6044-0.61922-0.0073-3.5016 0.75583-5.4635 1.5459z" style="paint-order:normal"/><path d="m-454.56 85.363c0.18842 1.1657 1.1436 2.8976 2.7312 3.885-0.0329 0.21747-0.86381 0.70877-0.86381 0.70877s-2.3174-1.0876-3.1447-3.0357" style="paint-order:normal"/></g></g><g transform="translate(0 -2.6458)" stroke-width="5.3333"><path d="m-398.8 116.99c2.1482-3.1884 5.3282-9.0045 6.8616-16.236-1.688-8.4527-5.4147-9.529-12.672-13.175l-6.7767-2.1655c-0.59411-4.9168 3.6635-6.0073 1.9582-7.5628-0.60935-0.60799-0.85772-1.1522-2.9281-0.74704-0.68887 2.8286-1.5891 4.8827-1.3841 7.8567-10.883-0.32482-19.868 1.216-23.756 10.917l0.59462 6.1575c0.40774 4.0645 0.90942 8.3604 1.1967 10.718 2.5101 9.5378 7.2756 12.849 15.15 17.947 10.807-1.6038 18.018-8.2324 21.756-13.711z" fill="#0273aa" style="paint-order:normal"/><path d="m-437.25 98.587c15.471 5.1608 28.853 6.2109 44.45 5.5289l-0.33269 1.0014c-2.8445 8.4888-7.1144 16.2-14.781 20.773-4.223 2.8764-8.9594 4.2426-12.641 4.8058 4.9019-1.9411 6.2815-3.1301 9.4413-5.6211 7.3031-5.7574 10.539-13.792-7.2632-17.546-2.0483-0.7546-6.9706-1.7956-8.957-2.4842-3.7869-1.3129-5.8745-2.6957-8.4949-4.1992-0.64857-0.55614-1.0512-1.5-1.4218-2.2578z" fill="#01557e" style="paint-order:normal"/><path transform="translate(-1.6925e-5 2.6458)" d="m-412.38 74.54c1.0465 1.0256 2.0377 1.5372 3.328 1.2175 0.0656 0.2104 0.0231 0.41892-0.0326 0.6272-1.5334 2.4092-2.4533 4.5524-2.2133 7.2847l0.16083 1.056c-0.9361 0.0984-1.8758 0.25857-2.4535-0.46812 0.75107 0.18109 0.90263 0.01389 1.4246-0.48589-0.17483-2.6617 0.30288-4.5117 1.4915-6.7707-0.34469-1.0516-1.0205-1.5646-1.7056-2.4607z" fill="#01557e" stroke-linecap="round" stroke-linejoin="round" stroke-miterlimit="40" stroke-width="4.7878"/></g><path transform="translate(-1.6925e-5 -2.6458)" d="m-425.35 109.54c-4.2857-3.1394-8.2273-6.2855-13.564-7.7988l-2.7439-0.63156-1.5425 5.9082 3.4719 4.9566c4.2342-0.0815 11.402 1.6057 14.77-0.71646 0.83261-0.45672 0.27535-1.182-0.3915-1.7181z" fill="#fff" stroke-linecap="round" stroke-linejoin="round" stroke-miterlimit="40" stroke-width="2.7018"/><path d="m-395.66 114.62c-3.6597-0.56995-7.7602-0.93577-11.112-1.7757-2.188-0.93216-3.0063-2.3589-1.7086-3.7192 0.37365-0.39735 5.6958-2.2575 8.5886-3.2526 2.8521-1.1865 5.5739-2.652 8.325-4.051l3.6776-2.6149 2.4911 6.8084-2.2969 7.9166-3.9248 1.4771z" fill="#fff" stroke-linecap="round" stroke-linejoin="round" stroke-miterlimit="40" stroke-width="4.7878"/></g></g></g></svg>
